<mxfile host="app.diagrams.net" modified="2021-02-10T16:43:51.378Z" agent="5.0 (Windows NT 10.0; Win64; x64) AppleWebKit/537.36 (KHTML, like Gecko) Chrome/88.0.4324.150 Safari/537.36" etag="nqtkAiPZo67k464nHM-g" version="14.3.0" type="github" pages="2">
  <diagram id="WPIGd1P5IR4SWYrxd255" name="Thoughts">
    <mxGraphModel dx="2480" dy="1686" grid="0" gridSize="10" guides="1" tooltips="1" connect="1" arrows="1" fold="1" page="0" pageScale="1" pageWidth="1400" pageHeight="1700" math="0" shadow="0">
      <root>
        <mxCell id="0" />
        <mxCell id="1" parent="0" />
        <mxCell id="TodJVUwYOGqo_OfT06sR-1" value="&lt;span style=&quot;font-size: 18px&quot;&gt;&lt;b&gt;Profile (Header)&lt;/b&gt;&lt;/span&gt;&lt;br&gt;&lt;span style=&quot;font-size: 18px&quot;&gt;Full Name&lt;/span&gt;&lt;br&gt;&lt;span style=&quot;font-size: 18px&quot;&gt;User ID&lt;/span&gt;&lt;br&gt;&lt;span style=&quot;font-size: 18px&quot;&gt;CN&amp;nbsp;&amp;nbsp;&lt;br&gt;&lt;/span&gt;&lt;br&gt;&lt;b&gt;&lt;font style=&quot;font-size: 18px&quot;&gt;User Preference Settings&lt;/font&gt;&lt;/b&gt;&lt;font size=&quot;1&quot;&gt;&lt;b style=&quot;font-size: 18px&quot;&gt;&lt;br&gt;&lt;br&gt;Application Name &lt;/b&gt;&lt;span style=&quot;font-size: 18px&quot;&gt;(Layout - expansion panels, tabs)&lt;br&gt;&lt;/span&gt;&lt;/font&gt;&lt;font&gt;&lt;br&gt;&lt;br&gt;&lt;/font&gt;&lt;blockquote style=&quot;margin: 0px 0px 0px 40px ; border: none ; padding: 0px ; font-size: 15px&quot;&gt;&lt;font style=&quot;font-size: 15px&quot;&gt;&lt;b&gt;Notifications&lt;/b&gt; - &lt;i&gt;TBD (predetermined by business and incorporated in app or managed per event by user.&lt;/i&gt;&lt;/font&gt;&lt;/blockquote&gt;&lt;blockquote style=&quot;margin: 0px 0px 0px 40px ; border: none ; padding: 0px ; font-size: 15px&quot;&gt;&lt;font style=&quot;font-size: 15px&quot;&gt;&lt;font style=&quot;font-size: 15px&quot;&gt;&lt;ol&gt;&lt;li&gt;&lt;span&gt;Active Subscriptions&lt;/span&gt;&lt;/li&gt;&lt;/ol&gt;&lt;/font&gt;&lt;font style=&quot;font-size: 15px&quot;&gt;&lt;b&gt;Appearance&lt;/b&gt;&lt;/font&gt;&lt;/font&gt;&lt;/blockquote&gt;&lt;font style=&quot;font-size: 15px&quot;&gt;&lt;font style=&quot;font-size: 15px&quot;&gt;&lt;ol&gt;&lt;ol&gt;&lt;li&gt;&lt;font style=&quot;font-size: 15px&quot;&gt;Themes&lt;/font&gt;&lt;/li&gt;&lt;li&gt;&lt;font style=&quot;font-size: 15px&quot;&gt;Startup Filters??- for example, IMA would only show me Assigned systems.&amp;nbsp; Eva would only show me Favorite Datasets.&lt;/font&gt;&lt;/li&gt;&lt;/ol&gt;&lt;/ol&gt;&lt;/font&gt;&lt;/font&gt;&lt;blockquote style=&quot;margin: 0px 0px 0px 40px ; border: none ; padding: 0px ; font-size: 15px&quot;&gt;&lt;font style=&quot;font-size: 15px&quot;&gt;&lt;font style=&quot;font-size: 15px&quot;&gt;&lt;div&gt;&lt;b&gt;Search&lt;/b&gt;&lt;/div&gt;&lt;/font&gt;&lt;/font&gt;&lt;/blockquote&gt;&lt;div style=&quot;font-size: 15px&quot;&gt;&lt;ol&gt;&lt;ol&gt;&lt;li&gt;&lt;font style=&quot;font-size: 15px&quot;&gt;Number of Search Results (page size)&lt;/font&gt;&lt;/li&gt;&lt;li&gt;&lt;font style=&quot;font-size: 15px&quot;&gt;Saved queries???&lt;/font&gt;&lt;/li&gt;&lt;/ol&gt;&lt;/ol&gt;&lt;/div&gt;&lt;blockquote style=&quot;margin: 0px 0px 0px 40px ; border: none ; padding: 0px ; font-size: 15px&quot;&gt;&lt;font style=&quot;font-size: 15px&quot;&gt;&lt;font style=&quot;font-size: 15px&quot;&gt;&lt;b&gt;Application Access&lt;/b&gt;&lt;/font&gt;&lt;/font&gt;&lt;/blockquote&gt;&lt;div style=&quot;font-size: 15px&quot;&gt;&lt;ol&gt;&lt;ol&gt;&lt;li&gt;&lt;font style=&quot;font-size: 15px&quot;&gt;Role membership&lt;/font&gt;&lt;/li&gt;&lt;/ol&gt;&lt;/ol&gt;&lt;div&gt;&lt;font style=&quot;font-size: 15px&quot;&gt;&lt;br&gt;&lt;/font&gt;&lt;/div&gt;&lt;/div&gt;&lt;blockquote style=&quot;margin: 0px 0px 0px 40px ; border: none ; padding: 0px ; font-size: 15px&quot;&gt;&lt;div&gt;&lt;b&gt;&lt;font style=&quot;font-size: 15px&quot;&gt;Reset to Default Settings&lt;/font&gt;&lt;/b&gt;&lt;/div&gt;&lt;/blockquote&gt;&lt;font style=&quot;font-size: 15px&quot;&gt;&lt;span&gt;&lt;br&gt;&lt;/span&gt;&lt;/font&gt;" style="text;html=1;strokeColor=none;fillColor=none;align=left;verticalAlign=middle;whiteSpace=wrap;rounded=0;" parent="1" vertex="1">
          <mxGeometry x="40" y="77" width="636" height="201" as="geometry" />
        </mxCell>
        <mxCell id="aZ1q8WLzLSEbGg7G-zQn-20" value="" style="dashed=0;shape=rect;fillColor=#ffffff;strokeColor=none;align=left;" parent="1" vertex="1">
          <mxGeometry x="1441" y="-15" width="358" height="642" as="geometry" />
        </mxCell>
        <mxCell id="aZ1q8WLzLSEbGg7G-zQn-21" value="" style="dashed=0;shape=rect;align=right;fillColor=#0973AE;strokeColor=none;fontColor=#FFFFFF;spacingRight=4;spacingTop=1;fontStyle=0;fontSize=13;resizeWidth=1;" parent="aZ1q8WLzLSEbGg7G-zQn-20" vertex="1">
          <mxGeometry width="358" height="24" relative="1" as="geometry" />
        </mxCell>
        <mxCell id="aZ1q8WLzLSEbGg7G-zQn-22" value="" style="dashed=0;shape=rect;strokeColor=none;fillColor=#098DCA;resizeWidth=1;" parent="aZ1q8WLzLSEbGg7G-zQn-20" vertex="1">
          <mxGeometry width="1110" height="126" relative="1" as="geometry">
            <mxPoint y="25" as="offset" />
          </mxGeometry>
        </mxCell>
        <mxCell id="aZ1q8WLzLSEbGg7G-zQn-23" value="" style="dashed=0;shape=mxgraph.gmdl.preferences;strokeColor=none;fillColor=#084560;" parent="aZ1q8WLzLSEbGg7G-zQn-22" vertex="1">
          <mxGeometry width="24" height="16" relative="1" as="geometry">
            <mxPoint x="16" y="20" as="offset" />
          </mxGeometry>
        </mxCell>
        <mxCell id="aZ1q8WLzLSEbGg7G-zQn-24" value="Shawane K. Gunnings&#xa;CN=ABC.123.ORG.US&#xa;gunnins" style="text;fontSize=20;fontColor=#FFFFFF;spacingTop=-3;verticalAlign=middle;resizeWidth=1;align=left;spacingLeft=72;" parent="aZ1q8WLzLSEbGg7G-zQn-22" vertex="1">
          <mxGeometry width="1110" height="24" relative="1" as="geometry">
            <mxPoint x="4" y="69" as="offset" />
          </mxGeometry>
        </mxCell>
        <mxCell id="aZ1q8WLzLSEbGg7G-zQn-25" value="" style="dashed=0;shape=mxgraph.gmdl.search;strokeColor=#084560;fillColor=none;strokeWidth=2;" parent="aZ1q8WLzLSEbGg7G-zQn-22" vertex="1">
          <mxGeometry x="1" width="16" height="16" relative="1" as="geometry">
            <mxPoint x="-73" y="20" as="offset" />
          </mxGeometry>
        </mxCell>
        <mxCell id="aZ1q8WLzLSEbGg7G-zQn-26" value="" style="dashed=0;shape=mxgraph.gmdl.rects;strokeColor=none;fillColor=#084560;" parent="aZ1q8WLzLSEbGg7G-zQn-22" vertex="1">
          <mxGeometry x="1" width="18" height="16" relative="1" as="geometry">
            <mxPoint x="-34" y="20" as="offset" />
          </mxGeometry>
        </mxCell>
        <mxCell id="aZ1q8WLzLSEbGg7G-zQn-27" value="" style="html=1;verticalLabelPosition=bottom;align=center;labelBackgroundColor=#ffffff;verticalAlign=top;strokeWidth=2;strokeColor=#0080F0;shadow=0;dashed=0;shape=mxgraph.ios7.icons.user;fontSize=16;fillColor=#FFFFFF;" parent="aZ1q8WLzLSEbGg7G-zQn-22" vertex="1">
          <mxGeometry x="10" y="48" width="50" height="50" as="geometry" />
        </mxCell>
        <mxCell id="aZ1q8WLzLSEbGg7G-zQn-28" value="" style="dashed=0;shape=rect;strokeColor=none;fillColor=#ffffff;resizeWidth=1;fontSize=16;fontColor=#000000;verticalAlign=middle;align=left;spacingLeft=72;" parent="aZ1q8WLzLSEbGg7G-zQn-20" vertex="1">
          <mxGeometry width="358" height="48" relative="1" as="geometry">
            <mxPoint y="360" as="offset" />
          </mxGeometry>
        </mxCell>
        <mxCell id="aZ1q8WLzLSEbGg7G-zQn-29" value="Records Control Schedule Service" style="dashed=0;shape=rect;strokeColor=none;fillColor=#ffffff;resizeWidth=1;fontSize=16;fontColor=#000000;verticalAlign=middle;align=left;spacingLeft=72;" parent="aZ1q8WLzLSEbGg7G-zQn-20" vertex="1">
          <mxGeometry width="358" height="48" relative="1" as="geometry">
            <mxPoint x="-39" y="213" as="offset" />
          </mxGeometry>
        </mxCell>
        <mxCell id="aZ1q8WLzLSEbGg7G-zQn-30" value="Information Management Approval Service" style="dashed=0;shape=rect;strokeColor=none;fillColor=#ffffff;resizeWidth=1;fontSize=16;fontColor=#000000;verticalAlign=middle;align=left;spacingLeft=72;" parent="aZ1q8WLzLSEbGg7G-zQn-20" vertex="1">
          <mxGeometry width="358" height="48" relative="1" as="geometry">
            <mxPoint x="-39" y="263" as="offset" />
          </mxGeometry>
        </mxCell>
        <mxCell id="aZ1q8WLzLSEbGg7G-zQn-31" value="" style="shape=line;strokeColor=#bbbbbb;strokeWidth=1;opacity=20;resizeWidth=1;" parent="aZ1q8WLzLSEbGg7G-zQn-20" vertex="1">
          <mxGeometry width="358" height="8" relative="1" as="geometry">
            <mxPoint y="467" as="offset" />
          </mxGeometry>
        </mxCell>
        <mxCell id="aZ1q8WLzLSEbGg7G-zQn-32" value="Eva" style="dashed=0;shape=rect;strokeColor=none;fillColor=#ffffff;resizeWidth=1;fontSize=16;fontColor=#000000;verticalAlign=middle;align=left;spacingLeft=72;" parent="aZ1q8WLzLSEbGg7G-zQn-20" vertex="1">
          <mxGeometry width="358" height="48" relative="1" as="geometry">
            <mxPoint x="-39" y="313" as="offset" />
          </mxGeometry>
        </mxCell>
        <mxCell id="aZ1q8WLzLSEbGg7G-zQn-33" value="Records Management Metadata Service" style="dashed=0;shape=rect;strokeColor=none;fillColor=#ffffff;resizeWidth=1;fontSize=16;fontColor=#000000;verticalAlign=middle;align=left;spacingLeft=72;" parent="aZ1q8WLzLSEbGg7G-zQn-20" vertex="1">
          <mxGeometry width="358" height="48" relative="1" as="geometry">
            <mxPoint x="-39" y="363" as="offset" />
          </mxGeometry>
        </mxCell>
        <mxCell id="aZ1q8WLzLSEbGg7G-zQn-34" value="" style="dashed=0;shape=rect;strokeColor=none;fillColor=#000000;resizeWidth=1;" parent="aZ1q8WLzLSEbGg7G-zQn-20" vertex="1">
          <mxGeometry y="1" width="358" height="48" relative="1" as="geometry">
            <mxPoint y="-48" as="offset" />
          </mxGeometry>
        </mxCell>
        <mxCell id="aZ1q8WLzLSEbGg7G-zQn-35" value="Notifications" style="html=1;shadow=0;dashed=0;shape=mxgraph.bootstrap.tabTop;fillColor=#ffffff;rSize=5;perimeter=none;whiteSpace=wrap;resizeWidth=1;align=center;spacing=20;fontSize=16;fontColor=#4B5259;strokeColor=#808080;" parent="1" vertex="1">
          <mxGeometry x="1811" y="145" width="100" height="40" as="geometry" />
        </mxCell>
        <mxCell id="aZ1q8WLzLSEbGg7G-zQn-36" value="Appearance" style="strokeColor=none;fillColor=none;rSize=5;perimeter=none;whiteSpace=wrap;resizeWidth=1;align=center;spacing=20;fontSize=16;fontColor=#0085FC;" parent="1" vertex="1">
          <mxGeometry x="1912" y="145" width="105" height="40" as="geometry" />
        </mxCell>
        <mxCell id="aZ1q8WLzLSEbGg7G-zQn-37" value="Search" style="strokeColor=none;fillColor=none;rSize=5;perimeter=none;whiteSpace=wrap;resizeWidth=1;align=center;spacing=20;fontSize=16;fontColor=#0085FC;" parent="1" vertex="1">
          <mxGeometry x="1981" y="145" width="165" height="40" as="geometry" />
        </mxCell>
        <mxCell id="aZ1q8WLzLSEbGg7G-zQn-38" value="Security" style="strokeColor=none;fillColor=none;rSize=5;perimeter=none;whiteSpace=wrap;resizeWidth=1;align=center;spacing=20;fontSize=16;fontColor=#0085FC;fontColor=#4B5259;" parent="1" vertex="1">
          <mxGeometry x="2036" y="145" width="230" height="40" as="geometry" />
        </mxCell>
        <mxCell id="aZ1q8WLzLSEbGg7G-zQn-39" value="" style="shape=line;strokeColor=#dddddd;fillColor=#098DCA;fontSize=19;align=left;" parent="1" vertex="1">
          <mxGeometry x="1891" y="180" width="700" height="25" as="geometry" />
        </mxCell>
        <mxCell id="aZ1q8WLzLSEbGg7G-zQn-40" value="" style="dashed=0;shape=rect;align=right;fillColor=#0973AE;strokeColor=none;fontColor=#FFFFFF;spacingRight=4;spacingTop=1;fontStyle=0;fontSize=13;resizeWidth=1;" parent="1" vertex="1">
          <mxGeometry x="1799" y="-15" width="753" height="24" as="geometry" />
        </mxCell>
      </root>
    </mxGraphModel>
  </diagram>
  <diagram id="tmkr4tvAxjYhGIkLysCz" name="Page-2">
    <mxGraphModel dx="1736" dy="1300" grid="0" gridSize="10" guides="1" tooltips="1" connect="1" arrows="1" fold="1" page="0" pageScale="1" pageWidth="1400" pageHeight="1700" math="0" shadow="0">
      <root>
        <mxCell id="DMS-eXMD5WUmatszE8yT-0" />
        <mxCell id="DMS-eXMD5WUmatszE8yT-1" parent="DMS-eXMD5WUmatszE8yT-0" />
        <mxCell id="migVjlgGnN5GBab__n9w-0" value="" style="dashed=0;shape=rect;fillColor=#ffffff;strokeColor=none;align=left;" vertex="1" parent="DMS-eXMD5WUmatszE8yT-1">
          <mxGeometry x="111" y="-173" width="358" height="642" as="geometry" />
        </mxCell>
        <mxCell id="migVjlgGnN5GBab__n9w-1" value="" style="dashed=0;shape=rect;align=right;fillColor=#0973AE;strokeColor=none;fontColor=#FFFFFF;spacingRight=4;spacingTop=1;fontStyle=0;fontSize=13;resizeWidth=1;" vertex="1" parent="migVjlgGnN5GBab__n9w-0">
          <mxGeometry width="358" height="24" relative="1" as="geometry" />
        </mxCell>
        <mxCell id="migVjlgGnN5GBab__n9w-2" value="" style="dashed=0;shape=rect;strokeColor=none;fillColor=#098DCA;resizeWidth=1;" vertex="1" parent="migVjlgGnN5GBab__n9w-0">
          <mxGeometry width="1110" height="126" relative="1" as="geometry">
            <mxPoint y="25" as="offset" />
          </mxGeometry>
        </mxCell>
        <mxCell id="migVjlgGnN5GBab__n9w-3" value="" style="dashed=0;shape=mxgraph.gmdl.preferences;strokeColor=none;fillColor=#084560;" vertex="1" parent="migVjlgGnN5GBab__n9w-2">
          <mxGeometry width="24" height="16" relative="1" as="geometry">
            <mxPoint x="16" y="20" as="offset" />
          </mxGeometry>
        </mxCell>
        <mxCell id="migVjlgGnN5GBab__n9w-4" value="Shawane K. Gunnings&#xa;CN=ABC.123.ORG.US&#xa;gunnins" style="text;fontSize=20;fontColor=#FFFFFF;spacingTop=-3;verticalAlign=middle;resizeWidth=1;align=left;spacingLeft=72;" vertex="1" parent="migVjlgGnN5GBab__n9w-2">
          <mxGeometry width="1110" height="24" relative="1" as="geometry">
            <mxPoint x="4" y="69" as="offset" />
          </mxGeometry>
        </mxCell>
        <mxCell id="migVjlgGnN5GBab__n9w-5" value="" style="dashed=0;shape=mxgraph.gmdl.search;strokeColor=#084560;fillColor=none;strokeWidth=2;" vertex="1" parent="migVjlgGnN5GBab__n9w-2">
          <mxGeometry x="1" width="16" height="16" relative="1" as="geometry">
            <mxPoint x="-73" y="20" as="offset" />
          </mxGeometry>
        </mxCell>
        <mxCell id="migVjlgGnN5GBab__n9w-6" value="" style="dashed=0;shape=mxgraph.gmdl.rects;strokeColor=none;fillColor=#084560;" vertex="1" parent="migVjlgGnN5GBab__n9w-2">
          <mxGeometry x="1" width="18" height="16" relative="1" as="geometry">
            <mxPoint x="-34" y="20" as="offset" />
          </mxGeometry>
        </mxCell>
        <mxCell id="migVjlgGnN5GBab__n9w-7" value="" style="html=1;verticalLabelPosition=bottom;align=center;labelBackgroundColor=#ffffff;verticalAlign=top;strokeWidth=2;strokeColor=#0080F0;shadow=0;dashed=0;shape=mxgraph.ios7.icons.user;fontSize=16;fillColor=#FFFFFF;" vertex="1" parent="migVjlgGnN5GBab__n9w-2">
          <mxGeometry x="10" y="48" width="50" height="50" as="geometry" />
        </mxCell>
        <mxCell id="migVjlgGnN5GBab__n9w-8" value="" style="dashed=0;shape=rect;strokeColor=none;fillColor=#ffffff;resizeWidth=1;fontSize=16;fontColor=#000000;verticalAlign=middle;align=left;spacingLeft=72;" vertex="1" parent="migVjlgGnN5GBab__n9w-0">
          <mxGeometry width="358" height="48" relative="1" as="geometry">
            <mxPoint y="360" as="offset" />
          </mxGeometry>
        </mxCell>
        <mxCell id="migVjlgGnN5GBab__n9w-9" value="Records Control Schedule Service" style="dashed=0;shape=rect;strokeColor=none;fillColor=#ffffff;resizeWidth=1;fontSize=16;fontColor=#000000;verticalAlign=middle;align=left;spacingLeft=72;" vertex="1" parent="migVjlgGnN5GBab__n9w-0">
          <mxGeometry width="358" height="48" relative="1" as="geometry">
            <mxPoint x="5" y="281" as="offset" />
          </mxGeometry>
        </mxCell>
        <mxCell id="migVjlgGnN5GBab__n9w-10" value="Information Management Approval Service" style="dashed=0;shape=rect;strokeColor=none;fillColor=#ffffff;resizeWidth=1;fontSize=16;fontColor=#000000;verticalAlign=middle;align=left;spacingLeft=72;" vertex="1" parent="migVjlgGnN5GBab__n9w-0">
          <mxGeometry width="358" height="48" relative="1" as="geometry">
            <mxPoint x="5" y="331" as="offset" />
          </mxGeometry>
        </mxCell>
        <mxCell id="migVjlgGnN5GBab__n9w-11" value="" style="shape=line;strokeColor=#bbbbbb;strokeWidth=1;opacity=20;resizeWidth=1;" vertex="1" parent="migVjlgGnN5GBab__n9w-0">
          <mxGeometry width="358" height="8" relative="1" as="geometry">
            <mxPoint y="467" as="offset" />
          </mxGeometry>
        </mxCell>
        <mxCell id="migVjlgGnN5GBab__n9w-12" value="Eva" style="dashed=0;shape=rect;strokeColor=none;fillColor=#ffffff;resizeWidth=1;fontSize=16;fontColor=#000000;verticalAlign=middle;align=left;spacingLeft=72;" vertex="1" parent="migVjlgGnN5GBab__n9w-0">
          <mxGeometry width="358" height="48" relative="1" as="geometry">
            <mxPoint x="5" y="381" as="offset" />
          </mxGeometry>
        </mxCell>
        <mxCell id="migVjlgGnN5GBab__n9w-13" value="Records Management Metadata Service" style="dashed=0;shape=rect;strokeColor=none;fillColor=#ffffff;resizeWidth=1;fontSize=16;fontColor=#000000;verticalAlign=middle;align=left;spacingLeft=72;" vertex="1" parent="migVjlgGnN5GBab__n9w-0">
          <mxGeometry width="358" height="48" relative="1" as="geometry">
            <mxPoint x="5" y="431" as="offset" />
          </mxGeometry>
        </mxCell>
        <mxCell id="migVjlgGnN5GBab__n9w-14" value="" style="dashed=0;shape=rect;strokeColor=none;fillColor=#000000;resizeWidth=1;" vertex="1" parent="migVjlgGnN5GBab__n9w-0">
          <mxGeometry y="1" width="358" height="48" relative="1" as="geometry">
            <mxPoint y="-48" as="offset" />
          </mxGeometry>
        </mxCell>
        <mxCell id="migVjlgGnN5GBab__n9w-15" value="Notifications" style="html=1;shadow=0;dashed=0;shape=mxgraph.bootstrap.tabTop;fillColor=#ffffff;rSize=5;perimeter=none;whiteSpace=wrap;resizeWidth=1;align=center;spacing=20;fontSize=16;fontColor=#4B5259;strokeColor=#808080;" vertex="1" parent="DMS-eXMD5WUmatszE8yT-1">
          <mxGeometry x="481" y="-13" width="100" height="40" as="geometry" />
        </mxCell>
        <mxCell id="migVjlgGnN5GBab__n9w-16" value="Appearance" style="strokeColor=none;fillColor=none;rSize=5;perimeter=none;whiteSpace=wrap;resizeWidth=1;align=center;spacing=20;fontSize=16;fontColor=#0085FC;" vertex="1" parent="DMS-eXMD5WUmatszE8yT-1">
          <mxGeometry x="582" y="-13" width="105" height="40" as="geometry" />
        </mxCell>
        <mxCell id="migVjlgGnN5GBab__n9w-17" value="Search" style="strokeColor=none;fillColor=none;rSize=5;perimeter=none;whiteSpace=wrap;resizeWidth=1;align=center;spacing=20;fontSize=16;fontColor=#0085FC;" vertex="1" parent="DMS-eXMD5WUmatszE8yT-1">
          <mxGeometry x="651" y="-13" width="165" height="40" as="geometry" />
        </mxCell>
        <mxCell id="migVjlgGnN5GBab__n9w-18" value="Security" style="strokeColor=none;fillColor=none;rSize=5;perimeter=none;whiteSpace=wrap;resizeWidth=1;align=center;spacing=20;fontSize=16;fontColor=#0085FC;fontColor=#4B5259;" vertex="1" parent="DMS-eXMD5WUmatszE8yT-1">
          <mxGeometry x="1314" y="-57" width="230" height="40" as="geometry" />
        </mxCell>
        <mxCell id="migVjlgGnN5GBab__n9w-19" value="" style="shape=line;strokeColor=#dddddd;fillColor=#098DCA;fontSize=19;align=left;" vertex="1" parent="DMS-eXMD5WUmatszE8yT-1">
          <mxGeometry x="561" y="22" width="658" height="25" as="geometry" />
        </mxCell>
        <mxCell id="migVjlgGnN5GBab__n9w-20" value="" style="dashed=0;shape=rect;align=right;fillColor=#0973AE;strokeColor=none;fontColor=#FFFFFF;spacingRight=4;spacingTop=1;fontStyle=0;fontSize=13;resizeWidth=1;" vertex="1" parent="DMS-eXMD5WUmatszE8yT-1">
          <mxGeometry x="469" y="-173" width="753" height="24" as="geometry" />
        </mxCell>
        <mxCell id="migVjlgGnN5GBab__n9w-21" value="" style="dashed=0;shape=rect;fillColor=#ffffff;strokeColor=none;" vertex="1" parent="DMS-eXMD5WUmatszE8yT-1">
          <mxGeometry x="1343" y="-169" width="358" height="642" as="geometry" />
        </mxCell>
        <mxCell id="migVjlgGnN5GBab__n9w-22" value="12:30" style="dashed=0;shape=rect;align=right;fillColor=#7B1FA2;strokeColor=none;fontColor=#FFFFFF;spacingRight=4;spacingTop=1;fontStyle=0;fontSize=13;resizeWidth=1;" vertex="1" parent="migVjlgGnN5GBab__n9w-21">
          <mxGeometry width="358" height="24" relative="1" as="geometry" />
        </mxCell>
        <mxCell id="migVjlgGnN5GBab__n9w-23" value="" style="dashed=0;shape=mxgraph.gmdl.top_bar;strokeColor=none;" vertex="1" parent="migVjlgGnN5GBab__n9w-22">
          <mxGeometry x="1" y="0.5" width="46" height="14" relative="1" as="geometry">
            <mxPoint x="-92" y="-7" as="offset" />
          </mxGeometry>
        </mxCell>
        <mxCell id="migVjlgGnN5GBab__n9w-24" value="Settings" style="dashed=0;shape=rect;strokeColor=none;fillColor=#9C27B0;resizeWidth=1;fontSize=21;fontColor=#FFFFFF;spacingTop=-3;verticalAlign=middle;align=left;spacingLeft=72;" vertex="1" parent="migVjlgGnN5GBab__n9w-21">
          <mxGeometry width="358" height="57" relative="1" as="geometry">
            <mxPoint y="24" as="offset" />
          </mxGeometry>
        </mxCell>
        <mxCell id="migVjlgGnN5GBab__n9w-25" value="" style="dashed=0;shape=mxgraph.gmdl.preferences;strokeColor=none;fillColor=#ffffff;" vertex="1" parent="migVjlgGnN5GBab__n9w-24">
          <mxGeometry y="0.5" width="24" height="16" relative="1" as="geometry">
            <mxPoint x="16" y="-8" as="offset" />
          </mxGeometry>
        </mxCell>
        <mxCell id="migVjlgGnN5GBab__n9w-26" value="" style="dashed=0;shape=mxgraph.gmdl.search;strokeColor=#ffffff;fillColor=none;strokeWidth=2;" vertex="1" parent="migVjlgGnN5GBab__n9w-24">
          <mxGeometry x="1" y="0.5" width="16" height="16" relative="1" as="geometry">
            <mxPoint x="-34" y="-8" as="offset" />
          </mxGeometry>
        </mxCell>
        <mxCell id="migVjlgGnN5GBab__n9w-27" value="User controls" style="text;fontSize=13;fontColor=#666666;spacingLeft=16;spacingTop=8;fontStyle=1;resizeWidth=1;" vertex="1" parent="migVjlgGnN5GBab__n9w-21">
          <mxGeometry width="358" height="40" relative="1" as="geometry">
            <mxPoint y="81" as="offset" />
          </mxGeometry>
        </mxCell>
        <mxCell id="migVjlgGnN5GBab__n9w-28" value="Content filtering" style="text;fontSize=16;fontStyle=0;spacingLeft=16;resizeWidth=1;" vertex="1" parent="migVjlgGnN5GBab__n9w-21">
          <mxGeometry width="358" height="30" relative="1" as="geometry">
            <mxPoint y="141" as="offset" />
          </mxGeometry>
        </mxCell>
        <mxCell id="migVjlgGnN5GBab__n9w-29" value="Set the content filtering level to restrict apps that can be downloaded" style="text;fontSize=14;fontStyle=0;spacingLeft=16;fontColor=#999999;verticalAlign=top;spacingTop=-8;whiteSpace=wrap;spacingRight=16;resizeWidth=1;" vertex="1" parent="migVjlgGnN5GBab__n9w-21">
          <mxGeometry width="358" height="30" relative="1" as="geometry">
            <mxPoint y="172" as="offset" />
          </mxGeometry>
        </mxCell>
        <mxCell id="migVjlgGnN5GBab__n9w-30" value="Password" style="text;fontSize=16;fontStyle=0;spacingLeft=16;resizeWidth=1;" vertex="1" parent="migVjlgGnN5GBab__n9w-21">
          <mxGeometry width="358" height="30" relative="1" as="geometry">
            <mxPoint y="215" as="offset" />
          </mxGeometry>
        </mxCell>
        <mxCell id="migVjlgGnN5GBab__n9w-31" value="Require password for purchase or use password to restrict purchase" style="text;fontSize=13;fontStyle=0;spacingLeft=16;fontColor=#999999;verticalAlign=top;spacingTop=-6;whiteSpace=wrap;resizeWidth=1;" vertex="1" parent="migVjlgGnN5GBab__n9w-21">
          <mxGeometry width="358" height="30" relative="1" as="geometry">
            <mxPoint y="244" as="offset" />
          </mxGeometry>
        </mxCell>
        <mxCell id="migVjlgGnN5GBab__n9w-32" value="" style="shape=line;strokeColor=#eeeeee;resizeWidth=1;" vertex="1" parent="migVjlgGnN5GBab__n9w-21">
          <mxGeometry width="358" height="10" relative="1" as="geometry">
            <mxPoint y="310" as="offset" />
          </mxGeometry>
        </mxCell>
        <mxCell id="migVjlgGnN5GBab__n9w-33" value="General" style="text;fontSize=13;fontColor=#666666;spacingLeft=16;spacingTop=8;fontStyle=1;resizeWidth=1;" vertex="1" parent="migVjlgGnN5GBab__n9w-21">
          <mxGeometry width="358" height="40" relative="1" as="geometry">
            <mxPoint y="315" as="offset" />
          </mxGeometry>
        </mxCell>
        <mxCell id="migVjlgGnN5GBab__n9w-34" value="Notifications&#xa;&lt;font style=&quot;font-size: 14px&quot; color=&quot;#999999&quot;&gt;Notify me about updates to apps or games&lt;br&gt;that I download&lt;/font&gt;" style="dashed=0;shape=mxgraph.gmdl.checkbox;html=1;strokeColor=#666666;strokeWidth=2;fillColor=none;labelPosition=right;verticalLabelPosition=middle;align=left;verticalAlign=top;spacingLeft=32;spacingTop=-18;fontSize=17;" vertex="1" parent="migVjlgGnN5GBab__n9w-21">
          <mxGeometry width="16" height="16" relative="1" as="geometry">
            <mxPoint x="16" y="380" as="offset" />
          </mxGeometry>
        </mxCell>
        <mxCell id="migVjlgGnN5GBab__n9w-35" value="Sound&#xa;&lt;font style=&quot;font-size: 14px&quot; color=&quot;#999999&quot;&gt;Auto-update apps at anytime. Data charges&lt;br&gt;may apply&lt;/font&gt;" style="dashed=0;shape=mxgraph.gmdl.checkbox;html=1;strokeColor=#666666;strokeWidth=2;fillColor=none;labelPosition=right;verticalLabelPosition=middle;align=left;verticalAlign=top;spacingLeft=32;spacingTop=-18;fontSize=17;" vertex="1" parent="migVjlgGnN5GBab__n9w-21">
          <mxGeometry width="16" height="16" relative="1" as="geometry">
            <mxPoint x="16" y="472" as="offset" />
          </mxGeometry>
        </mxCell>
        <mxCell id="migVjlgGnN5GBab__n9w-36" value="Auto-add widgets&#xa;&lt;font style=&quot;font-size: 14px&quot; color=&quot;#999999&quot;&gt;Automatically add home screen widgets&lt;/font&gt;" style="dashed=0;shape=mxgraph.gmdl.checkbox;html=1;strokeColor=#666666;strokeWidth=2;fillColor=none;labelPosition=right;verticalLabelPosition=middle;align=left;verticalAlign=top;spacingLeft=32;spacingTop=-18;fontSize=17;" vertex="1" parent="migVjlgGnN5GBab__n9w-21">
          <mxGeometry width="16" height="16" relative="1" as="geometry">
            <mxPoint x="16" y="562" as="offset" />
          </mxGeometry>
        </mxCell>
        <mxCell id="migVjlgGnN5GBab__n9w-37" value="" style="dashed=0;shape=rect;strokeColor=none;fillColor=#000000;resizeWidth=1;" vertex="1" parent="migVjlgGnN5GBab__n9w-21">
          <mxGeometry y="1" width="358" height="48" relative="1" as="geometry">
            <mxPoint y="-48" as="offset" />
          </mxGeometry>
        </mxCell>
        <mxCell id="migVjlgGnN5GBab__n9w-38" value="" style="dashed=0;shape=mxgraph.gmdl.back;strokeColor=#ffffff;fillColor=#000000;strokeWidth=2;" vertex="1" parent="migVjlgGnN5GBab__n9w-37">
          <mxGeometry x="0.25" y="0.5" width="14" height="14" relative="1" as="geometry">
            <mxPoint x="-7" y="-7" as="offset" />
          </mxGeometry>
        </mxCell>
        <mxCell id="migVjlgGnN5GBab__n9w-39" value="" style="shape=ellipse;strokeColor=#ffffff;fillColor=#000000;strokeWidth=2;" vertex="1" parent="migVjlgGnN5GBab__n9w-37">
          <mxGeometry x="0.5" y="0.5" width="14" height="14" relative="1" as="geometry">
            <mxPoint x="-7" y="-7" as="offset" />
          </mxGeometry>
        </mxCell>
        <mxCell id="migVjlgGnN5GBab__n9w-40" value="" style="shape=rect;strokeColor=#ffffff;fillColor=#000000;strokeWidth=2;" vertex="1" parent="migVjlgGnN5GBab__n9w-37">
          <mxGeometry x="0.75" y="0.5" width="14" height="14" relative="1" as="geometry">
            <mxPoint x="-7" y="-7" as="offset" />
          </mxGeometry>
        </mxCell>
        <mxCell id="migVjlgGnN5GBab__n9w-41" value="" style="dashed=0;shape=rect;fillColor=#ffffff;strokeColor=none;align=left;" vertex="1" parent="DMS-eXMD5WUmatszE8yT-1">
          <mxGeometry x="123" y="523" width="358" height="642" as="geometry" />
        </mxCell>
        <mxCell id="migVjlgGnN5GBab__n9w-42" value="" style="dashed=0;shape=rect;align=right;fillColor=#0973AE;strokeColor=none;fontColor=#FFFFFF;spacingRight=4;spacingTop=1;fontStyle=0;fontSize=13;resizeWidth=1;" vertex="1" parent="migVjlgGnN5GBab__n9w-41">
          <mxGeometry width="358" height="24" relative="1" as="geometry" />
        </mxCell>
        <mxCell id="migVjlgGnN5GBab__n9w-43" value="" style="dashed=0;shape=rect;strokeColor=none;fillColor=#098DCA;resizeWidth=1;" vertex="1" parent="migVjlgGnN5GBab__n9w-41">
          <mxGeometry width="1110" height="126" relative="1" as="geometry">
            <mxPoint y="25" as="offset" />
          </mxGeometry>
        </mxCell>
        <mxCell id="migVjlgGnN5GBab__n9w-44" value="" style="dashed=0;shape=mxgraph.gmdl.preferences;strokeColor=none;fillColor=#084560;" vertex="1" parent="migVjlgGnN5GBab__n9w-43">
          <mxGeometry width="24" height="16" relative="1" as="geometry">
            <mxPoint x="16" y="20" as="offset" />
          </mxGeometry>
        </mxCell>
        <mxCell id="migVjlgGnN5GBab__n9w-45" value="Shawane K. Gunnings&#xa;CN=ABC.123.ORG.US&#xa;gunnins" style="text;fontSize=20;fontColor=#FFFFFF;spacingTop=-3;verticalAlign=middle;resizeWidth=1;align=left;spacingLeft=72;" vertex="1" parent="migVjlgGnN5GBab__n9w-43">
          <mxGeometry width="1110" height="24" relative="1" as="geometry">
            <mxPoint x="30820" y="165" as="offset" />
          </mxGeometry>
        </mxCell>
        <mxCell id="migVjlgGnN5GBab__n9w-46" value="" style="dashed=0;shape=mxgraph.gmdl.search;strokeColor=#084560;fillColor=none;strokeWidth=2;" vertex="1" parent="migVjlgGnN5GBab__n9w-43">
          <mxGeometry x="1" width="16" height="16" relative="1" as="geometry">
            <mxPoint x="-73" y="20" as="offset" />
          </mxGeometry>
        </mxCell>
        <mxCell id="migVjlgGnN5GBab__n9w-47" value="" style="dashed=0;shape=mxgraph.gmdl.rects;strokeColor=none;fillColor=#084560;" vertex="1" parent="migVjlgGnN5GBab__n9w-43">
          <mxGeometry x="1" width="18" height="16" relative="1" as="geometry">
            <mxPoint x="-34" y="20" as="offset" />
          </mxGeometry>
        </mxCell>
        <mxCell id="migVjlgGnN5GBab__n9w-48" value="" style="html=1;verticalLabelPosition=bottom;align=center;labelBackgroundColor=#ffffff;verticalAlign=top;strokeWidth=2;strokeColor=#0080F0;shadow=0;dashed=0;shape=mxgraph.ios7.icons.user;fontSize=16;fillColor=#FFFFFF;" vertex="1" parent="migVjlgGnN5GBab__n9w-43">
          <mxGeometry x="10" y="48" width="50" height="50" as="geometry" />
        </mxCell>
        <mxCell id="OsK8eEwjMnYCEO9tYYhz-1" value="&lt;span style=&quot;background-color: rgb(9 , 141 , 202)&quot;&gt;&lt;span style=&quot;color: rgb(255 , 255 , 255) ; font-family: &amp;#34;helvetica&amp;#34; ; font-size: 20px ; font-style: normal ; font-weight: 400 ; letter-spacing: normal ; text-align: left ; text-indent: 0px ; text-transform: none ; word-spacing: 0px ; display: inline ; float: none&quot;&gt;Shawane K. Gunnings&lt;/span&gt;&lt;br style=&quot;padding: 0px ; margin: 0px ; color: rgb(255 , 255 , 255) ; font-family: &amp;#34;helvetica&amp;#34; ; font-size: 20px ; font-style: normal ; font-weight: 400 ; letter-spacing: normal ; text-align: left ; text-indent: 0px ; text-transform: none ; word-spacing: 0px&quot;&gt;&lt;span style=&quot;color: rgb(255 , 255 , 255) ; font-family: &amp;#34;helvetica&amp;#34; ; font-size: 20px ; font-style: normal ; font-weight: 400 ; letter-spacing: normal ; text-align: left ; text-indent: 0px ; text-transform: none ; word-spacing: 0px ; display: inline ; float: none&quot;&gt;CN=ABC.123.ORG.US&lt;/span&gt;&lt;br style=&quot;padding: 0px ; margin: 0px ; color: rgb(255 , 255 , 255) ; font-family: &amp;#34;helvetica&amp;#34; ; font-size: 20px ; font-style: normal ; font-weight: 400 ; letter-spacing: normal ; text-align: left ; text-indent: 0px ; text-transform: none ; word-spacing: 0px&quot;&gt;&lt;span style=&quot;color: rgb(255 , 255 , 255) ; font-family: &amp;#34;helvetica&amp;#34; ; font-size: 20px ; font-style: normal ; font-weight: 400 ; letter-spacing: normal ; text-align: left ; text-indent: 0px ; text-transform: none ; word-spacing: 0px ; display: inline ; float: none&quot;&gt;gunnins&lt;/span&gt;&lt;/span&gt;" style="text;whiteSpace=wrap;html=1;" vertex="1" parent="migVjlgGnN5GBab__n9w-43">
          <mxGeometry x="84" y="23" width="225" height="65" as="geometry" />
        </mxCell>
        <mxCell id="migVjlgGnN5GBab__n9w-49" value="" style="dashed=0;shape=rect;strokeColor=none;fillColor=#ffffff;resizeWidth=1;fontSize=16;fontColor=#000000;verticalAlign=middle;align=left;spacingLeft=72;" vertex="1" parent="migVjlgGnN5GBab__n9w-41">
          <mxGeometry width="358" height="48" relative="1" as="geometry">
            <mxPoint y="360" as="offset" />
          </mxGeometry>
        </mxCell>
        <mxCell id="migVjlgGnN5GBab__n9w-50" value="Records Control Schedule Service" style="dashed=0;shape=rect;strokeColor=none;fillColor=#ffffff;resizeWidth=1;fontSize=16;fontColor=#000000;verticalAlign=middle;align=left;spacingLeft=72;" vertex="1" parent="migVjlgGnN5GBab__n9w-41">
          <mxGeometry width="358" height="48" relative="1" as="geometry">
            <mxPoint x="-51" y="361" as="offset" />
          </mxGeometry>
        </mxCell>
        <mxCell id="migVjlgGnN5GBab__n9w-51" value="Information Management Approval Service" style="dashed=0;shape=rect;strokeColor=none;fillColor=#ffffff;resizeWidth=1;fontSize=16;fontColor=#000000;verticalAlign=middle;align=left;spacingLeft=72;" vertex="1" parent="migVjlgGnN5GBab__n9w-41">
          <mxGeometry width="358" height="48" relative="1" as="geometry">
            <mxPoint x="-51" y="411" as="offset" />
          </mxGeometry>
        </mxCell>
        <mxCell id="migVjlgGnN5GBab__n9w-53" value="Eva" style="dashed=0;shape=rect;strokeColor=none;fillColor=#ffffff;resizeWidth=1;fontSize=16;fontColor=#000000;verticalAlign=middle;align=left;spacingLeft=72;" vertex="1" parent="migVjlgGnN5GBab__n9w-41">
          <mxGeometry width="358" height="48" relative="1" as="geometry">
            <mxPoint x="-51" y="461" as="offset" />
          </mxGeometry>
        </mxCell>
        <mxCell id="migVjlgGnN5GBab__n9w-54" value="Records Management Metadata Service" style="dashed=0;shape=rect;strokeColor=none;fillColor=#ffffff;resizeWidth=1;fontSize=16;fontColor=#000000;verticalAlign=middle;align=left;spacingLeft=72;" vertex="1" parent="migVjlgGnN5GBab__n9w-41">
          <mxGeometry width="358" height="48" relative="1" as="geometry">
            <mxPoint x="-51" y="511" as="offset" />
          </mxGeometry>
        </mxCell>
        <mxCell id="migVjlgGnN5GBab__n9w-55" value="" style="dashed=0;shape=rect;strokeColor=none;fillColor=#000000;resizeWidth=1;" vertex="1" parent="migVjlgGnN5GBab__n9w-41">
          <mxGeometry y="1" width="358" height="48" relative="1" as="geometry">
            <mxPoint y="-48" as="offset" />
          </mxGeometry>
        </mxCell>
        <mxCell id="OsK8eEwjMnYCEO9tYYhz-2" value="Notifications&#xa;&lt;font style=&quot;font-size: 14px&quot; color=&quot;#999999&quot;&gt;Notify me about updates to apps or games&lt;br&gt;that I download&lt;/font&gt;" style="dashed=0;shape=mxgraph.gmdl.checkbox;html=1;strokeColor=#666666;strokeWidth=2;fillColor=none;labelPosition=right;verticalLabelPosition=middle;align=left;verticalAlign=top;spacingLeft=32;spacingTop=-18;fontSize=17;" vertex="1" parent="migVjlgGnN5GBab__n9w-41">
          <mxGeometry x="38" y="206" width="16" height="16" as="geometry" />
        </mxCell>
        <mxCell id="migVjlgGnN5GBab__n9w-56" value="Notifications" style="html=1;shadow=0;dashed=0;shape=mxgraph.bootstrap.tabTop;fillColor=#ffffff;rSize=5;perimeter=none;whiteSpace=wrap;resizeWidth=1;align=center;spacing=20;fontSize=16;fontColor=#4B5259;strokeColor=#808080;" vertex="1" parent="DMS-eXMD5WUmatszE8yT-1">
          <mxGeometry x="631" y="1204" width="100" height="40" as="geometry" />
        </mxCell>
        <mxCell id="migVjlgGnN5GBab__n9w-57" value="Appearance" style="strokeColor=none;fillColor=none;rSize=5;perimeter=none;whiteSpace=wrap;resizeWidth=1;align=center;spacing=20;fontSize=16;fontColor=#0085FC;" vertex="1" parent="DMS-eXMD5WUmatszE8yT-1">
          <mxGeometry x="732" y="1204" width="105" height="40" as="geometry" />
        </mxCell>
        <mxCell id="migVjlgGnN5GBab__n9w-58" value="Search" style="strokeColor=none;fillColor=none;rSize=5;perimeter=none;whiteSpace=wrap;resizeWidth=1;align=center;spacing=20;fontSize=16;fontColor=#0085FC;" vertex="1" parent="DMS-eXMD5WUmatszE8yT-1">
          <mxGeometry x="801" y="1204" width="165" height="40" as="geometry" />
        </mxCell>
        <mxCell id="migVjlgGnN5GBab__n9w-59" value="" style="shape=line;strokeColor=#dddddd;fillColor=#098DCA;fontSize=19;align=left;" vertex="1" parent="DMS-eXMD5WUmatszE8yT-1">
          <mxGeometry x="711" y="1239" width="658" height="25" as="geometry" />
        </mxCell>
        <mxCell id="migVjlgGnN5GBab__n9w-60" value="" style="dashed=0;shape=rect;align=right;fillColor=#0973AE;strokeColor=none;fontColor=#FFFFFF;spacingRight=4;spacingTop=1;fontStyle=0;fontSize=13;resizeWidth=1;" vertex="1" parent="DMS-eXMD5WUmatszE8yT-1">
          <mxGeometry x="481" y="523" width="753" height="24" as="geometry" />
        </mxCell>
      </root>
    </mxGraphModel>
  </diagram>
</mxfile>
